<?xml version="1.0" standalone="no"?>
<!DOCTYPE svg PUBLIC "-//W3C//DTD SVG 20010904//EN"
 "http://www.w3.org/TR/2001/REC-SVG-20010904/DTD/svg10.dtd">
<svg version="1.0" xmlns="http://www.w3.org/2000/svg"
 width="269.000000pt" height="269.000000pt" viewBox="0 0 269.000000 269.000000"
 preserveAspectRatio="xMidYMid meet">
<metadata>
Created by potrace 1.14, written by Peter Selinger 2001-2017
</metadata>
<g transform="translate(0.000000,269.000000) scale(0.100000,-0.100000)"
fill="#000000" stroke="none">
<path d="M550 1335 l0 -355 65 0 65 0 2 218 3 217 66 -215 65 -215 51 -3 c42
-2 52 0 57 15 3 10 33 115 66 233 34 118 64 217 67 220 3 3 2 -102 -2 -232
l-8 -238 72 0 71 0 0 355 0 356 -87 -3 -88 -3 -70 -237 c-38 -131 -73 -238
-76 -238 -3 0 -37 107 -76 238 l-70 237 -86 3 -87 3 0 -356z"/>
<path d="M1310 1335 l0 -355 70 0 70 0 0 145 0 145 110 0 110 0 0 60 0 60
-110 0 -110 0 0 90 0 90 125 0 125 0 0 60 0 60 -195 0 -195 0 0 -355z"/>
<path d="M1780 1435 c0 -294 7 -340 57 -396 79 -88 278 -89 354 -3 51 59 53
72 57 372 l4 282 -71 0 -71 0 0 -259 c0 -266 -6 -313 -40 -331 -31 -17 -96
-12 -121 9 l-24 19 -3 281 -3 281 -70 0 -69 0 0 -255z"/>
</g>
</svg>
